<svg width="332" height="42" viewBox="0 0 332 42" fill="none" xmlns="http://www.w3.org/2000/svg">
<path fill-rule="evenodd" clip-rule="evenodd" d="M0 0.666666C0 0.666666 2.5 -0.833332 17 0.666666C31.5 2.16666 38 27.7387 68.5 20.2027C99 12.6667 138.333 30.6667 166 30.6667C193.667 30.6667 221.333 20.2027 249 18.7052C276.667 17.2076 289.5 23 303 25.1667L332 31V42.1667H318.167C304.333 42.1667 276.667 42.1667 249 42.1667C221.333 42.1667 193.667 42.1667 166 42.1667C138.333 42.1667 110.667 42.1667 83 42.1667C55.3333 42.1667 27.6667 42.1667 13.8333 42.1667H0V0.666666Z" fill="#FEBBBB" fill-opacity="0.28"/>
</svg>
